<?xml version="1.0" encoding="UTF-8" standalone="no"?>
<svg width="800" height="600" viewBox="0 0 800 600" xmlns="http://www.w3.org/2000/svg">
  <!-- Background -->
  <rect width="800" height="600" fill="#f5f7fa" />
  
  <!-- Admin Dashboard Header -->
  <rect width="800" height="64" fill="#1a73e8" />
  <text x="72" y="40" font-family="Arial" font-size="20" font-weight="bold" fill="white">Admin Dashboard - Staff Ratings</text>
  
  <!-- Menu Button -->
  <circle cx="36" cy="32" r="20" fill="#1a73e8" stroke="white" stroke-width="2" />
  <path d="M26,26 L46,26 M26,32 L46,32 M26,38 L46,38" stroke="white" stroke-width="2" fill="none" />
  
  <!-- Filter Card -->
  <rect x="40" y="84" width="720" height="80" rx="8" fill="white" stroke="#e0e0e0" stroke-width="1" />
  
  <!-- Staff Type Filter -->
  <text x="60" y="114" font-family="Arial" font-size="14" fill="#616161">Staff Type:</text>
  <rect x="60" y="124" width="140" height="30" rx="4" fill="white" stroke="#e0e0e0" stroke-width="1" />
  <text x="80" y="144" font-family="Arial" font-size="14" fill="#212121">All</text>
  <path d="M180,134 L190,144 L170,144 Z" fill="#616161" />
  
  <!-- Rating Filter -->
  <text x="220" y="114" font-family="Arial" font-size="14" fill="#616161">Min Rating:</text>
  <rect x="220" y="124" width="80" height="30" rx="4" fill="white" stroke="#e0e0e0" stroke-width="1" />
  <text x="240" y="144" font-family="Arial" font-size="14" fill="#212121">Any</text>
  <path d="M280,134 L290,144 L270,144 Z" fill="#616161" />
  
  <text x="320" y="114" font-family="Arial" font-size="14" fill="#616161">Max Rating:</text>
  <rect x="320" y="124" width="80" height="30" rx="4" fill="white" stroke="#e0e0e0" stroke-width="1" />
  <text x="340" y="144" font-family="Arial" font-size="14" fill="#212121">Any</text>
  <path d="M380,134 L390,144 L370,144 Z" fill="#616161" />
  
  <!-- Search -->
  <text x="420" y="114" font-family="Arial" font-size="14" fill="#616161">Search:</text>
  <rect x="420" y="124" width="200" height="30" rx="4" fill="white" stroke="#e0e0e0" stroke-width="1" />
  <text x="440" y="144" font-family="Arial" font-size="14" fill="#9e9e9e">Search by member name...</text>
  
  <!-- Export Button -->
  <rect x="640" y="124" width="120" height="30" rx="4" fill="#4caf50" />
  <text x="700" y="144" font-family="Arial" font-size="14" font-weight="bold" fill="white" text-anchor="middle">Export CSV</text>
  
  <!-- Summary Cards -->
  <rect x="40" y="184" width="230" height="100" rx="8" fill="white" stroke="#e0e0e0" stroke-width="1" />
  <text x="60" y="214" font-family="Arial" font-size="16" font-weight="bold" fill="#212121">Total Ratings</text>
  <text x="60" y="254" font-family="Arial" font-size="36" font-weight="bold" fill="#1a73e8">152</text>
  
  <rect x="285" y="184" width="230" height="100" rx="8" fill="white" stroke="#e0e0e0" stroke-width="1" />
  <text x="305" y="214" font-family="Arial" font-size="16" font-weight="bold" fill="#212121">Average Rating</text>
  <text x="305" y="254" font-family="Arial" font-size="36" font-weight="bold" fill="#4caf50">4.2</text>
  
  <rect x="530" y="184" width="230" height="100" rx="8" fill="white" stroke="#e0e0e0" stroke-width="1" />
  <text x="550" y="214" font-family="Arial" font-size="16" font-weight="bold" fill="#212121">Low Ratings (≤ 2)</text>
  <text x="550" y="254" font-family="Arial" font-size="36" font-weight="bold" fill="#f44336">18</text>
  
  <!-- Ratings Table -->
  <rect x="40" y="304" width="720" height="246" rx="8" fill="white" stroke="#e0e0e0" stroke-width="1" />
  
  <!-- Table Header -->
  <rect x="40" y="304" width="720" height="40" rx="8 8 0 0" fill="#f5f5f5" />
  <text x="70" y="330" font-family="Arial" font-size="14" font-weight="bold" fill="#616161">Member</text>
  <text x="240" y="330" font-family="Arial" font-size="14" font-weight="bold" fill="#616161">Staff ID</text>
  <text x="320" y="330" font-family="Arial" font-size="14" font-weight="bold" fill="#616161">Staff Type</text>
  <text x="420" y="330" font-family="Arial" font-size="14" font-weight="bold" fill="#616161">Rating</text>
  <text x="520" y="330" font-family="Arial" font-size="14" font-weight="bold" fill="#616161">Feedback</text>
  <text x="700" y="330" font-family="Arial" font-size="14" font-weight="bold" fill="#616161">Date</text>
  
  <!-- Table Row 1 -->
  <line x1="40" y1="344" x2="760" y2="344" stroke="#e0e0e0" stroke-width="1" />
  <circle cx="70" cy="364" r="20" fill="#e8f0fe" />
  <text x="70" y="370" font-family="Arial" font-size="14" font-weight="bold" fill="#1a73e8" text-anchor="middle">A</text>
  <text x="100" y="364" font-family="Arial" font-size="14" fill="#212121">Asha Sharma</text>
  <text x="100" y="384" font-family="Arial" font-size="12" fill="#757575">Member ID: 12</text>
  <text x="240" y="370" font-family="Arial" font-size="14" fill="#616161">1003</text>
  <rect x="320" y="360" width="80" height="20" rx="10" fill="#e8f0fe" />
  <text x="360" y="374" font-family="Arial" font-size="12" fill="#1a73e8" text-anchor="middle">Member</text>
  
  <!-- Star Rating -->
  <g transform="translate(420, 364)">
    <path d="M8,2 L10.09,6.26 L15,7.27 L11.5,10.14 L12.18,15.02 L8,12.77 L3.82,15.02 L4.5,10.14 L1,7.27 L5.91,6.26 Z" fill="#FFC107" />
    <path d="M8,2 L10.09,6.26 L15,7.27 L11.5,10.14 L12.18,15.02 L8,12.77 L3.82,15.02 L4.5,10.14 L1,7.27 L5.91,6.26 Z" transform="translate(20, 0)" fill="#FFC107" />
    <path d="M8,2 L10.09,6.26 L15,7.27 L11.5,10.14 L12.18,15.02 L8,12.77 L3.82,15.02 L4.5,10.14 L1,7.27 L5.91,6.26 Z" transform="translate(40, 0)" fill="#FFC107" />
    <path d="M8,2 L10.09,6.26 L15,7.27 L11.5,10.14 L12.18,15.02 L8,12.77 L3.82,15.02 L4.5,10.14 L1,7.27 L5.91,6.26 Z" transform="translate(60, 0)" fill="#FFC107" />
    <path d="M8,2 L10.09,6.26 L15,7.27 L11.5,10.14 L12.18,15.02 L8,12.77 L3.82,15.02 L4.5,10.14 L1,7.27 L5.91,6.26 Z" transform="translate(80, 0)" fill="#FFC107" />
  </g>
  
  <text x="520" y="370" font-family="Arial" font-size="14" fill="#616161">Great service! Very punctual...</text>
  <text x="700" y="370" font-family="Arial" font-size="14" fill="#616161">2023-11-19</text>
  
  <!-- Table Row 2 -->
  <line x1="40" y1="404" x2="760" y2="404" stroke="#e0e0e0" stroke-width="1" />
  <circle cx="70" cy="424" r="20" fill="#e8f0fe" />
  <text x="70" y="430" font-family="Arial" font-size="14" font-weight="bold" fill="#1a73e8" text-anchor="middle">R</text>
  <text x="100" y="424" font-family="Arial" font-size="14" fill="#212121">Rahul Kumar</text>
  <text x="100" y="444" font-family="Arial" font-size="12" fill="#757575">Member ID: 15</text>
  <text x="240" y="430" font-family="Arial" font-size="14" fill="#616161">2001</text>
  <rect x="320" y="420" width="80" height="20" rx="10" fill="#f3e5f5" />
  <text x="360" y="434" font-family="Arial" font-size="12" fill="#9c27b0" text-anchor="middle">Society</text>
  
  <!-- Star Rating -->
  <g transform="translate(420, 424)">
    <path d="M8,2 L10.09,6.26 L15,7.27 L11.5,10.14 L12.18,15.02 L8,12.77 L3.82,15.02 L4.5,10.14 L1,7.27 L5.91,6.26 Z" fill="#FFC107" />
    <path d="M8,2 L10.09,6.26 L15,7.27 L11.5,10.14 L12.18,15.02 L8,12.77 L3.82,15.02 L4.5,10.14 L1,7.27 L5.91,6.26 Z" transform="translate(20, 0)" fill="#FFC107" />
    <path d="M8,2 L10.09,6.26 L15,7.27 L11.5,10.14 L12.18,15.02 L8,12.77 L3.82,15.02 L4.5,10.14 L1,7.27 L5.91,6.26 Z" transform="translate(40, 0)" fill="#FFC107" />
    <path d="M8,2 L10.09,6.26 L15,7.27 L11.5,10.14 L12.18,15.02 L8,12.77 L3.82,15.02 L4.5,10.14 L1,7.27 L5.91,6.26 Z" transform="translate(60, 0)" fill="#FFC107" />
    <path d="M8,2 L10.09,6.26 L15,7.27 L11.5,10.14 L12.18,15.02 L8,12.77 L3.82,15.02 L4.5,10.14 L1,7.27 L5.91,6.26 Z" transform="translate(80, 0)" fill="#E0E0E0" />
  </g>
  
  <text x="520" y="430" font-family="Arial" font-size="14" fill="#616161">Very helpful and professional...</text>
  <text x="700" y="430" font-family="Arial" font-size="14" fill="#616161">2023-11-18</text>
  
  <!-- Table Row 3 -->
  <line x1="40" y1="464" x2="760" y2="464" stroke="#e0e0e0" stroke-width="1" />
  <circle cx="70" cy="484" r="20" fill="#e8f0fe" />
  <text x="70" y="490" font-family="Arial" font-size="14" font-weight="bold" fill="#1a73e8" text-anchor="middle">S</text>
  <text x="100" y="484" font-family="Arial" font-size="14" fill="#212121">Sanjay Patel</text>
  <text x="100" y="504" font-family="Arial" font-size="12" fill="#757575">Member ID: 8</text>
  <text x="240" y="490" font-family="Arial" font-size="14" fill="#616161">1005</text>
  <rect x="320" y="480" width="80" height="20" rx="10" fill="#e8f0fe" />
  <text x="360" y="494" font-family="Arial" font-size="12" fill="#1a73e8" text-anchor="middle">Member</text>
  
  <!-- Star Rating -->
  <g transform="translate(420, 484)">
    <path d="M8,2 L10.09,6.26 L15,7.27 L11.5,10.14 L12.18,15.02 L8,12.77 L3.82,15.02 L4.5,10.14 L1,7.27 L5.91,6.26 Z" fill="#FFC107" />
    <path d="M8,2 L10.09,6.26 L15,7.27 L11.5,10.14 L12.18,15.02 L8,12.77 L3.82,15.02 L4.5,10.14 L1,7.27 L5.91,6.26 Z" transform="translate(20, 0)" fill="#FFC107" />
    <path d="M8,2 L10.09,6.26 L15,7.27 L11.5,10.14 L12.18,15.02 L8,12.77 L3.82,15.02 L4.5,10.14 L1,7.27 L5.91,6.26 Z" transform="translate(40, 0)" fill="#E0E0E0" />
    <path d="M8,2 L10.09,6.26 L15,7.27 L11.5,10.14 L12.18,15.02 L8,12.77 L3.82,15.02 L4.5,10.14 L1,7.27 L5.91,6.26 Z" transform="translate(60, 0)" fill="#E0E0E0" />
    <path d="M8,2 L10.09,6.26 L15,7.27 L11.5,10.14 L12.18,15.02 L8,12.77 L3.82,15.02 L4.5,10.14 L1,7.27 L5.91,6.26 Z" transform="translate(80, 0)" fill="#E0E0E0" />
  </g>
  
  <text x="520" y="490" font-family="Arial" font-size="14" fill="#616161">Needs improvement in...</text>
  <text x="700" y="490" font-family="Arial" font-size="14" fill="#616161">2023-11-15</text>
  
  <!-- Pagination -->
  <rect x="40" y="550" width="720" height="30" rx="0 0 8 8" fill="#f5f5f5" />
  <rect x="320" y="555" width="30" height="20" rx="4" fill="#1a73e8" />
  <text x="335" y="569" font-family="Arial" font-size="12" font-weight="bold" fill="white" text-anchor="middle">1</text>
  <rect x="360" y="555" width="30" height="20" rx="4" fill="#f5f5f5" stroke="#e0e0e0" stroke-width="1" />
  <text x="375" y="569" font-family="Arial" font-size="12" fill="#616161" text-anchor="middle">2</text>
  <rect x="400" y="555" width="30" height="20" rx="4" fill="#f5f5f5" stroke="#e0e0e0" stroke-width="1" />
  <text x="415" y="569" font-family="Arial" font-size="12" fill="#616161" text-anchor="middle">3</text>
  <rect x="440" y="555" width="30" height="20" rx="4" fill="#f5f5f5" stroke="#e0e0e0" stroke-width="1" />
  <text x="455" y="569" font-family="Arial" font-size="12" fill="#616161" text-anchor="middle">4</text>
</svg>
