<?xml version="1.0" encoding="UTF-8" standalone="no"?>
<svg width="800" height="600" viewBox="0 0 800 600" xmlns="http://www.w3.org/2000/svg">
  <!-- Background -->
  <rect width="800" height="600" fill="#f5f7fa" />
  
  <!-- App Bar -->
  <rect width="800" height="64" fill="#1a73e8" />
  <text x="72" y="40" font-family="Arial" font-size="20" font-weight="bold" fill="white">Staff Attendance</text>
  
  <!-- Back Button -->
  <circle cx="36" cy="32" r="20" fill="#1a73e8" stroke="white" stroke-width="2" />
  <path d="M42,32 L30,32 M30,32 L36,26 M30,32 L36,38" stroke="white" stroke-width="2" fill="none" />
  
  <!-- Calendar Header -->
  <rect x="40" y="84" width="720" height="60" rx="8" fill="white" stroke="#e0e0e0" stroke-width="1" />
  <text x="400" y="120" font-family="Arial" font-size="18" font-weight="bold" fill="#212121" text-anchor="middle">November 2023</text>
  <path d="M100,120 L80,120 M80,120 L90,110 M80,120 L90,130" stroke="#9e9e9e" stroke-width="2" fill="none" />
  <path d="M700,120 L720,120 M720,120 L710,110 M720,120 L710,130" stroke="#9e9e9e" stroke-width="2" fill="none" />
  
  <!-- Calendar Days -->
  <text x="100" y="170" font-family="Arial" font-size="14" fill="#9e9e9e" text-anchor="middle">Sun</text>
  <text x="200" y="170" font-family="Arial" font-size="14" fill="#9e9e9e" text-anchor="middle">Mon</text>
  <text x="300" y="170" font-family="Arial" font-size="14" fill="#9e9e9e" text-anchor="middle">Tue</text>
  <text x="400" y="170" font-family="Arial" font-size="14" fill="#9e9e9e" text-anchor="middle">Wed</text>
  <text x="500" y="170" font-family="Arial" font-size="14" fill="#9e9e9e" text-anchor="middle">Thu</text>
  <text x="600" y="170" font-family="Arial" font-size="14" fill="#9e9e9e" text-anchor="middle">Fri</text>
  <text x="700" y="170" font-family="Arial" font-size="14" fill="#9e9e9e" text-anchor="middle">Sat</text>
  
  <!-- Calendar Grid - Week 1 -->
  <rect x="50" y="190" width="100" height="60" rx="4" fill="#f5f5f5" stroke="#e0e0e0" stroke-width="1" />
  <text x="100" y="220" font-family="Arial" font-size="16" fill="#9e9e9e" text-anchor="middle">29</text>
  
  <rect x="150" y="190" width="100" height="60" rx="4" fill="#f5f5f5" stroke="#e0e0e0" stroke-width="1" />
  <text x="200" y="220" font-family="Arial" font-size="16" fill="#9e9e9e" text-anchor="middle">30</text>
  
  <rect x="250" y="190" width="100" height="60" rx="4" fill="#f5f5f5" stroke="#e0e0e0" stroke-width="1" />
  <text x="300" y="220" font-family="Arial" font-size="16" fill="#9e9e9e" text-anchor="middle">31</text>
  
  <rect x="350" y="190" width="100" height="60" rx="4" fill="white" stroke="#e0e0e0" stroke-width="1" />
  <text x="400" y="220" font-family="Arial" font-size="16" fill="#212121" text-anchor="middle">1</text>
  
  <rect x="450" y="190" width="100" height="60" rx="4" fill="white" stroke="#e0e0e0" stroke-width="1" />
  <text x="500" y="220" font-family="Arial" font-size="16" fill="#212121" text-anchor="middle">2</text>
  
  <rect x="550" y="190" width="100" height="60" rx="4" fill="white" stroke="#e0e0e0" stroke-width="1" />
  <text x="600" y="220" font-family="Arial" font-size="16" fill="#212121" text-anchor="middle">3</text>
  
  <rect x="650" y="190" width="100" height="60" rx="4" fill="white" stroke="#e0e0e0" stroke-width="1" />
  <text x="700" y="220" font-family="Arial" font-size="16" fill="#212121" text-anchor="middle">4</text>
  
  <!-- Calendar Grid - Week 2 -->
  <rect x="50" y="250" width="100" height="60" rx="4" fill="white" stroke="#e0e0e0" stroke-width="1" />
  <text x="100" y="280" font-family="Arial" font-size="16" fill="#212121" text-anchor="middle">5</text>
  
  <rect x="150" y="250" width="100" height="60" rx="4" fill="white" stroke="#e0e0e0" stroke-width="1" />
  <text x="200" y="280" font-family="Arial" font-size="16" fill="#212121" text-anchor="middle">6</text>
  
  <rect x="250" y="250" width="100" height="60" rx="4" fill="white" stroke="#e0e0e0" stroke-width="1" />
  <text x="300" y="280" font-family="Arial" font-size="16" fill="#212121" text-anchor="middle">7</text>
  
  <rect x="350" y="250" width="100" height="60" rx="4" fill="white" stroke="#e0e0e0" stroke-width="1" />
  <text x="400" y="280" font-family="Arial" font-size="16" fill="#212121" text-anchor="middle">8</text>
  
  <rect x="450" y="250" width="100" height="60" rx="4" fill="white" stroke="#e0e0e0" stroke-width="1" />
  <text x="500" y="280" font-family="Arial" font-size="16" fill="#212121" text-anchor="middle">9</text>
  
  <rect x="550" y="250" width="100" height="60" rx="4" fill="white" stroke="#e0e0e0" stroke-width="1" />
  <text x="600" y="280" font-family="Arial" font-size="16" fill="#212121" text-anchor="middle">10</text>
  
  <rect x="650" y="250" width="100" height="60" rx="4" fill="white" stroke="#e0e0e0" stroke-width="1" />
  <text x="700" y="280" font-family="Arial" font-size="16" fill="#212121" text-anchor="middle">11</text>
  
  <!-- Calendar Grid - Week 3 -->
  <rect x="50" y="310" width="100" height="60" rx="4" fill="white" stroke="#e0e0e0" stroke-width="1" />
  <text x="100" y="340" font-family="Arial" font-size="16" fill="#212121" text-anchor="middle">12</text>
  
  <rect x="150" y="310" width="100" height="60" rx="4" fill="white" stroke="#e0e0e0" stroke-width="1" />
  <text x="200" y="340" font-family="Arial" font-size="16" fill="#212121" text-anchor="middle">13</text>
  
  <rect x="250" y="310" width="100" height="60" rx="4" fill="white" stroke="#e0e0e0" stroke-width="1" />
  <text x="300" y="340" font-family="Arial" font-size="16" fill="#212121" text-anchor="middle">14</text>
  
  <rect x="350" y="310" width="100" height="60" rx="4" fill="#e8f0fe" stroke="#1a73e8" stroke-width="2" />
  <text x="400" y="340" font-family="Arial" font-size="16" font-weight="bold" fill="#1a73e8" text-anchor="middle">15</text>
  <circle cx="400" cy="310" r="12" fill="#4caf50" />
  
  <rect x="450" y="310" width="100" height="60" rx="4" fill="white" stroke="#e0e0e0" stroke-width="1" />
  <text x="500" y="340" font-family="Arial" font-size="16" fill="#212121" text-anchor="middle">16</text>
  <circle cx="500" cy="310" r="12" fill="#f44336" />
  
  <rect x="550" y="310" width="100" height="60" rx="4" fill="white" stroke="#e0e0e0" stroke-width="1" />
  <text x="600" y="340" font-family="Arial" font-size="16" fill="#212121" text-anchor="middle">17</text>
  
  <rect x="650" y="310" width="100" height="60" rx="4" fill="white" stroke="#e0e0e0" stroke-width="1" />
  <text x="700" y="340" font-family="Arial" font-size="16" fill="#212121" text-anchor="middle">18</text>
  
  <!-- Staff Details -->
  <rect x="40" y="390" width="720" height="80" rx="8" fill="white" stroke="#e0e0e0" stroke-width="1" />
  <circle cx="80" cy="430" r="30" fill="#e8f0fe" />
  <text x="80" y="438" font-family="Arial" font-size="20" fill="#1a73e8" text-anchor="middle">RS</text>
  <text x="130" y="420" font-family="Arial" font-size="18" font-weight="bold" fill="#212121">Rahul Singh</text>
  <text x="130" y="450" font-family="Arial" font-size="16" fill="#616161">Cook</text>
  
  <!-- Attendance Form -->
  <rect x="40" y="490" width="720" height="100" rx="8" fill="white" stroke="#e0e0e0" stroke-width="1" />
  <text x="60" y="520" font-family="Arial" font-size="16" font-weight="bold" fill="#212121">Mark Attendance for November 15, 2023</text>
  
  <!-- Attendance Options -->
  <circle cx="80" cy="550" r="12" fill="#4caf50" />
  <text x="110" y="555" font-family="Arial" font-size="16" fill="#212121">Present</text>
  
  <circle cx="200" cy="550" r="12" fill="#f44336" />
  <text x="230" y="555" font-family="Arial" font-size="16" fill="#212121">Absent</text>
  
  <!-- Photo Upload -->
  <rect x="350" y="530" width="120" height="40" rx="4" fill="white" stroke="#1a73e8" stroke-width="1" />
  <text x="410" y="555" font-family="Arial" font-size="14" fill="#1a73e8" text-anchor="middle">Take Photo</text>
  
  <!-- Submit Button -->
  <rect x="600" y="530" width="120" height="40" rx="4" fill="#1a73e8" />
  <text x="660" y="555" font-family="Arial" font-size="14" fill="white" text-anchor="middle">Submit</text>
</svg>
