<?xml version="1.0" encoding="UTF-8" standalone="no"?>
<svg width="800" height="600" viewBox="0 0 800 600" xmlns="http://www.w3.org/2000/svg">
  <!-- Background -->
  <rect width="800" height="600" fill="#f5f7fa" />
  
  <!-- App Bar -->
  <rect width="800" height="64" fill="#1a73e8" />
  <text x="72" y="40" font-family="Arial" font-size="20" font-weight="bold" fill="white">Staff Profile</text>
  
  <!-- Back Button -->
  <circle cx="36" cy="32" r="20" fill="#1a73e8" stroke="white" stroke-width="2" />
  <path d="M42,32 L30,32 M30,32 L36,26 M30,32 L36,38" stroke="white" stroke-width="2" fill="none" />
  
  <!-- Staff Profile Card -->
  <rect x="40" y="84" width="720" height="180" rx="8" fill="white" stroke="#e0e0e0" stroke-width="1" />
  
  <!-- Staff Avatar -->
  <circle cx="120" cy="144" r="60" fill="#e8f0fe" stroke="#1a73e8" stroke-width="2" />
  <text x="120" y="160" font-family="Arial" font-size="40" font-weight="bold" fill="#1a73e8" text-anchor="middle">RS</text>
  
  <!-- Staff Info -->
  <text x="220" y="124" font-family="Arial" font-size="24" font-weight="bold" fill="#212121">Rahul Singh</text>
  <text x="220" y="154" font-family="Arial" font-size="18" fill="#616161">Cook</text>
  <text x="220" y="184" font-family="Arial" font-size="16" fill="#757575">ID: 1003</text>
  
  <!-- Rate Button -->
  <rect x="600" y="144" width="140" height="40" rx="4" fill="#1a73e8" />
  <text x="670" y="168" font-family="Arial" font-size="16" font-weight="bold" fill="white" text-anchor="middle">Rate Staff</text>
  
  <!-- Rating Summary Card -->
  <rect x="40" y="284" width="720" height="296" rx="8" fill="white" stroke="#e0e0e0" stroke-width="1" />
  
  <!-- Rating Summary Title -->
  <text x="60" y="324" font-family="Arial" font-size="18" font-weight="bold" fill="#212121">Ratings & Reviews</text>
  <text x="200" y="324" font-family="Arial" font-size="16" fill="#757575">(18 ratings)</text>
  
  <!-- Average Rating -->
  <text x="100" y="380" font-family="Arial" font-size="48" font-weight="bold" fill="#212121">4.2</text>
  
  <!-- Star Rating -->
  <g transform="translate(180, 370)">
    <path d="M12,2 L15.09,8.26 L22,9.27 L17,14.14 L18.18,21.02 L12,17.77 L5.82,21.02 L7,14.14 L2,9.27 L8.91,8.26 Z" fill="#FFC107" />
    <path d="M12,2 L15.09,8.26 L22,9.27 L17,14.14 L18.18,21.02 L12,17.77 L5.82,21.02 L7,14.14 L2,9.27 L8.91,8.26 Z" transform="translate(30, 0)" fill="#FFC107" />
    <path d="M12,2 L15.09,8.26 L22,9.27 L17,14.14 L18.18,21.02 L12,17.77 L5.82,21.02 L7,14.14 L2,9.27 L8.91,8.26 Z" transform="translate(60, 0)" fill="#FFC107" />
    <path d="M12,2 L15.09,8.26 L22,9.27 L17,14.14 L18.18,21.02 L12,17.77 L5.82,21.02 L7,14.14 L2,9.27 L8.91,8.26 Z" transform="translate(90, 0)" fill="#FFC107" />
    <path d="M12,2 L15.09,8.26 L22,9.27 L17,14.14 L18.18,21.02 L12,17.77 L5.82,21.02 L7,14.14 L2,9.27 L8.91,8.26 Z" transform="translate(120, 0)" fill="#E0E0E0" stroke="#FFC107" stroke-width="1" />
  </g>
  
  <!-- Rating Distribution -->
  <text x="60" y="420" font-family="Arial" font-size="16" font-weight="bold" fill="#212121">Rating Distribution</text>
  
  <!-- 5 Stars -->
  <text x="60" y="450" font-family="Arial" font-size="14" fill="#616161">5</text>
  <rect x="80" y="442" width="500" height="12" rx="6" fill="#f5f5f5" />
  <rect x="80" y="442" width="350" height="12" rx="6" fill="#FFC107" />
  <text x="590" y="450" font-family="Arial" font-size="14" fill="#616161">7</text>
  
  <!-- 4 Stars -->
  <text x="60" y="480" font-family="Arial" font-size="14" fill="#616161">4</text>
  <rect x="80" y="472" width="500" height="12" rx="6" fill="#f5f5f5" />
  <rect x="80" y="472" width="250" height="12" rx="6" fill="#FFC107" />
  <text x="590" y="480" font-family="Arial" font-size="14" fill="#616161">5</text>
  
  <!-- 3 Stars -->
  <text x="60" y="510" font-family="Arial" font-size="14" fill="#616161">3</text>
  <rect x="80" y="502" width="500" height="12" rx="6" fill="#f5f5f5" />
  <rect x="80" y="502" width="150" height="12" rx="6" fill="#FFC107" />
  <text x="590" y="510" font-family="Arial" font-size="14" fill="#616161">3</text>
  
  <!-- 2 Stars -->
  <text x="60" y="540" font-family="Arial" font-size="14" fill="#616161">2</text>
  <rect x="80" y="532" width="500" height="12" rx="6" fill="#f5f5f5" />
  <rect x="80" y="532" width="100" height="12" rx="6" fill="#FFC107" />
  <text x="590" y="540" font-family="Arial" font-size="14" fill="#616161">2</text>
  
  <!-- 1 Star -->
  <text x="60" y="570" font-family="Arial" font-size="14" fill="#616161">1</text>
  <rect x="80" y="562" width="500" height="12" rx="6" fill="#f5f5f5" />
  <rect x="80" y="562" width="50" height="12" rx="6" fill="#FFC107" />
  <text x="590" y="570" font-family="Arial" font-size="14" fill="#616161">1</text>
</svg>
